<svg width="400" height="100" viewBox="0 0 400 100" fill="none" xmlns="http://www.w3.org/2000/svg">
<path d="M101.231 2.50003L298.769 2.50003C299.382 2.50003 299.993 2.57523 300.588 2.72396L391.819 25.5317C395.158 26.3664 397.5 29.3663 397.5 32.8078L397.5 50L397.5 67.1922C397.5 70.6338 395.158 73.6336 391.819 74.4683L300.588 97.2761C299.993 97.4248 299.382 97.5 298.769 97.5L101.231 97.5C100.618 97.5 100.007 97.4248 99.4122 97.2761L8.18115 74.4683C4.84241 73.6336 2.50017 70.6338 2.50017 67.1923L2.50012 50L2.50017 32.8078C2.50017 29.3663 4.8424 26.3664 8.18115 25.5317L99.4122 2.72396C100.007 2.57523 100.618 2.50003 101.231 2.50003Z" fill="white" stroke="black" stroke-width="5"/>
</svg>
