<svg width="100" height="400" viewBox="0 0 100 400" fill="none" xmlns="http://www.w3.org/2000/svg">
<path d="M2.49999 298.769L2.49998 101.231C2.49998 100.618 2.57518 100.007 2.72391 99.412L25.5317 8.18098C26.3664 4.84223 29.3662 2.50001 32.8078 2.50001L50 2.5L67.1922 2.5C70.6337 2.5 73.6336 4.84223 74.4683 8.18097L97.276 99.412C97.4248 100.007 97.5 100.618 97.5 101.231L97.5 298.769C97.5 299.382 97.4247 299.993 97.276 300.588L74.4683 391.819C73.6336 395.158 70.6337 397.5 67.1922 397.5L50 397.5L32.8077 397.5C29.3662 397.5 26.3664 395.158 25.5317 391.819L2.72392 300.588C2.57519 299.993 2.49999 299.382 2.49999 298.769Z" fill="white" stroke="black" stroke-width="5"/>
</svg>
