<svg width="163" height="207" viewBox="0 0 163 207" fill="none" xmlns="http://www.w3.org/2000/svg">
<g filter="url(#filter0_d_4_60)">
<path d="M56 54.1421C56 51.49 57.0536 48.9464 58.9289 47.0711L98.9289 7.07107C102.834 3.16583 109.166 3.16583 113.071 7.07107L153.071 47.0711C154.946 48.9464 156 51.49 156 54.1421V145.858C156 148.51 154.946 151.054 153.071 152.929L113.071 192.929C109.166 196.834 102.834 196.834 98.9289 192.929L58.9289 152.929C57.0536 151.054 56 148.51 56 145.858V54.1421Z" fill="white" stroke="black" stroke-width="5"/>
<path d="M114 100C114 95.582 110.418 92.0003 106 92.0003C101.582 92.0003 98 95.582 98 100C98 104.419 101.582 108 106 108C110.418 108 114 104.419 114 100ZM5.90425 98.5034C5.07751 98.5563 4.45018 99.2693 4.50306 100.096L5.36481 113.569C5.4177 114.395 6.13077 115.023 6.95751 114.97C7.78425 114.917 8.41158 114.204 8.3587 113.377L7.59269 101.402L19.5682 100.636C20.395 100.583 21.0223 99.8696 20.9694 99.0428C20.9165 98.2161 20.2035 97.5888 19.3767 97.6416L5.90425 98.5034ZM106 100C105.009 98.8741 105.009 98.874 105.009 98.874C105.009 98.8741 105.009 98.8741 105.009 98.8744C105.008 98.8748 105.008 98.8756 105.006 98.8767C105.004 98.879 104.999 98.8827 104.994 98.8878C104.982 98.8979 104.964 98.9136 104.94 98.9347C104.891 98.9768 104.817 99.0405 104.72 99.1241C104.524 99.2914 104.232 99.5388 103.85 99.8548C103.087 100.487 101.967 101.393 100.549 102.483C97.7113 104.662 93.6886 107.568 88.9496 110.471C79.4133 116.314 67.2117 122 56 122L56 125C68.0769 125 80.8753 118.936 90.5169 113.029C95.3668 110.058 99.4775 107.088 102.376 104.862C103.826 103.748 104.975 102.818 105.764 102.165C106.158 101.839 106.462 101.581 106.669 101.404C106.773 101.316 106.852 101.248 106.906 101.201C106.933 101.177 106.953 101.159 106.967 101.147C106.975 101.141 106.98 101.136 106.984 101.132C106.986 101.131 106.987 101.129 106.989 101.128C106.989 101.128 106.99 101.127 106.99 101.127C106.99 101.127 106.991 101.127 106 100ZM56 122C44.7883 122 32.5867 116.314 23.0504 110.471C18.3114 107.568 14.2887 104.662 11.4513 102.483C10.0333 101.393 8.91332 100.487 8.15 99.8548C7.76839 99.5388 7.47607 99.2914 7.28039 99.1241C7.18255 99.0405 7.10888 98.9769 7.06031 98.9347C7.03602 98.9136 7.01801 98.8979 7.00638 98.8878C7.00057 98.8827 6.99635 98.879 6.99375 98.8767C6.99245 98.8756 6.99155 98.8748 6.99106 98.8744C6.9908 98.8741 6.99074 98.8741 6.99062 98.874C6.99065 98.874 6.99079 98.8741 6 100C5.00921 101.127 5.00955 101.127 5.00999 101.127C5.01027 101.127 5.01082 101.128 5.01138 101.128C5.01252 101.129 5.01405 101.131 5.016 101.132C5.01989 101.136 5.0254 101.141 5.03251 101.147C5.04674 101.159 5.0674 101.177 5.09436 101.201C5.14828 101.248 5.22745 101.316 5.33095 101.404C5.53791 101.581 5.84221 101.839 6.23648 102.165C7.02491 102.818 8.17367 103.748 9.62379 104.862C12.5225 107.088 16.6332 110.058 21.4831 113.029C31.1247 118.936 43.9231 125 56 125L56 122Z" fill="black"/>
</g>
<defs>
<filter id="filter0_d_4_60" x="0.5" y="1.64215" width="162" height="204.716" filterUnits="userSpaceOnUse" color-interpolation-filters="sRGB">
<feFlood flood-opacity="0" result="BackgroundImageFix"/>
<feColorMatrix in="SourceAlpha" type="matrix" values="0 0 0 0 0 0 0 0 0 0 0 0 0 0 0 0 0 0 127 0" result="hardAlpha"/>
<feOffset dy="4"/>
<feGaussianBlur stdDeviation="2"/>
<feComposite in2="hardAlpha" operator="out"/>
<feColorMatrix type="matrix" values="0 0 0 0 0 0 0 0 0 0 0 0 0 0 0 0 0 0 0.25 0"/>
<feBlend mode="normal" in2="BackgroundImageFix" result="effect1_dropShadow_4_60"/>
<feBlend mode="normal" in="SourceGraphic" in2="effect1_dropShadow_4_60" result="shape"/>
</filter>
</defs>
</svg>
