<svg width="262" height="259" viewBox="0 0 262 259" fill="none" xmlns="http://www.w3.org/2000/svg">
<path d="M2 54.1421C2 51.49 3.05357 48.9464 4.92893 47.0711L44.9289 7.07107C48.8342 3.16583 55.1658 3.16583 59.0711 7.07107L99.0711 47.0711C100.946 48.9464 102 51.49 102 54.1421V145.858C102 148.51 100.946 151.054 99.0711 152.929L59.0711 192.929C55.1658 196.834 48.8342 196.834 44.9289 192.929L4.92893 152.929C3.05357 151.054 2 148.51 2 145.858V54.1421Z" fill="white" stroke="#B9B9B9" stroke-width="3" stroke-dasharray="6 6"/>
<path d="M116.142 256C113.49 256 110.946 254.946 109.071 253.071L69.0711 213.071C65.1658 209.166 65.1658 202.834 69.0711 198.929L109.071 158.929C110.946 157.054 113.49 156 116.142 156L207.858 156C210.51 156 213.054 157.054 214.929 158.929L254.929 198.929C258.834 202.834 258.834 209.166 254.929 213.071L214.929 253.071C213.054 254.946 210.51 256 207.858 256L116.142 256Z" stroke="black" stroke-width="5"/>
<path d="M162.276 143.689C162.656 144.089 163.289 144.105 163.689 143.724L170.21 137.521C170.61 137.14 170.626 136.507 170.245 136.107C169.864 135.707 169.231 135.691 168.831 136.072L163.035 141.586L157.521 135.79C157.14 135.39 156.507 135.374 156.107 135.755C155.707 136.136 155.691 136.769 156.072 137.169L162.276 143.689ZM112 92C112.025 92.9997 112.025 92.9997 112.025 92.9997C112.025 92.9997 112.025 92.9997 112.025 92.9997C112.025 92.9997 112.026 92.9997 112.027 92.9996C112.029 92.9996 112.032 92.9995 112.037 92.9994C112.047 92.9992 112.062 92.9989 112.083 92.9986C112.124 92.998 112.187 92.9973 112.271 92.9969C112.439 92.9961 112.69 92.9966 113.016 93.0023C113.669 93.0136 114.622 93.0452 115.811 93.1266C118.19 93.2895 121.509 93.6515 125.261 94.447C132.785 96.0423 141.945 99.3592 148.793 106.207L150.207 104.793C142.972 97.5575 133.382 94.1244 125.676 92.4905C121.814 91.6715 118.399 91.2991 115.947 91.1312C114.721 91.0473 113.734 91.0144 113.051 91.0026C112.709 90.9967 112.444 90.996 112.262 90.9969C112.171 90.9973 112.101 90.9981 112.053 90.9989C112.029 90.9992 112.01 90.9996 111.997 90.9998C111.991 91 111.985 91.0001 111.982 91.0001C111.98 91.0002 111.979 91.0002 111.977 91.0002C111.977 91.0003 111.976 91.0003 111.976 91.0003C111.976 91.0003 111.975 91.0003 112 92ZM148.793 106.207C155.641 113.055 158.958 122.215 160.553 129.739C161.349 133.491 161.711 136.81 161.873 139.189C161.955 140.378 161.986 141.331 161.998 141.984C162.003 142.31 162.004 142.561 162.003 142.729C162.003 142.813 162.002 142.876 162.001 142.917C162.001 142.938 162.001 142.953 162.001 142.963C162 142.968 162 142.971 162 142.973C162 142.974 162 142.975 162 142.975C162 142.975 162 142.975 162 142.975C162 142.975 162 142.975 163 143C164 143.025 164 143.025 164 143.024C164 143.024 164 143.023 164 143.023C164 143.021 164 143.02 164 143.018C164 143.015 164 143.009 164 143.003C164 142.99 164.001 142.971 164.001 142.947C164.002 142.899 164.003 142.829 164.003 142.738C164.004 142.556 164.003 142.291 163.997 141.949C163.986 141.266 163.953 140.279 163.869 139.053C163.701 136.601 163.329 133.186 162.509 129.324C160.876 121.618 157.442 112.028 150.207 104.793L148.793 106.207Z" fill="#B9B9B9"/>
</svg>
